<svg
    xmlns="http://www.w3.org/2000/svg"
    width="30"
    height="30"
    viewBox="0 0 1080 1080">
    <path
        d="M374 1c-78 2-112 6-149 15A273 273 0 0 0 24 199C3 260 0 303 0 539c0 212 2 260 15 313a280 280 0 0 0 144 188c43 21 87 32 144 36 48 3 76 3 237 4 161 0 191-1 236-4 70-5 126-22 172-52a285 285 0 0 0 122-200c4-23 6-41 8-84 1-34 2-62 2-200 0-175-1-214-6-258A284 284 0 0 0 857 16C819 7 786 3 701 1H374zm353 98c49 2 68 4 91 9a183 183 0 0 1 116 66c21 26 35 60 41 102 6 38 7 84 7 263 0 227-2 262-17 309-10 30-23 50-44 71-16 17-30 27-50 36-26 13-52 19-90 23-21 2-55 3-118 4h-64V692h102v-3l20-123-61-1h-61v-46l1-56c4-28 17-43 45-48 6-2 16-2 45-2h36v-59l-1-58-9-2a457 457 0 0 0-127-6c-82 14-133 68-141 153l-1 67v57H333v127h114v290h-46c-89-1-123-4-156-13a183 183 0 0 1-138-154c-8-38-10-105-10-281 0-151 2-219 7-256 7-42 21-78 42-104 37-45 83-66 159-72 18-2 53-3 98-4 69-1 295 0 324 1z"
    />
</svg>